PathFileType	4	(X/Y/Z)	Walk3.trc
DataRate	CameraRate	NumFrames	NumMarkers	Units	OrigDataRate	OrigDataStartFrame	OrigNumFrames
200.000000	200.000000	4	56	mm	200.000000	488	821
Frame#	Times		LWRR		RLFC		RBHD		RTH3		C7		RMFC		RToe		LElbow		RTB2		RMT1		RMT5		RTB3		LMT5		LWRU		LUA1		LCAR		RCAL		LACR1		RMMAL		RFA1		LASI		LLFC		LTH3		LTB2		LPSI		LCAL		LMMAL		LToe		RPSI		RLMAL		LLMAL		RUA1		LTH2		RFHD		RWRU		RBack		LBHD		LTH4		LMFC		LTB1		RCAR		LTH1		LTB3		RTH2		LTB4		LMT1		RElbow		RTH1		RTH4		RTB4		LFHD		RASI		RACR1		RWRR		T10		RTB1
			X1	Y1	Z1	X2	Y2	Z2	X3	Y3	Z3	X4	Y4	Z4	X5	Y5	Z5	X6	Y6	Z6	X7	Y7	Z7	X8	Y8	Z8	X9	Y9	Z9	X10	Y10	Z10	X11	Y11	Z11	X12	Y12	Z12	X13	Y13	Z13	X14	Y14	Z14	X15	Y15	Z15	X16	Y16	Z16	X17	Y17	Z17	X18	Y18	Z18	X19	Y19	Z19	X20	Y20	Z20	X21	Y21	Z21	X22	Y22	Z22	X23	Y23	Z23	X24	Y24	Z24	X25	Y25	Z25	X26	Y26	Z26	X27	Y27	Z27	X28	Y28	Z28	X29	Y29	Z29	X30	Y30	Z30	X31	Y31	Z31	X32	Y32	Z32	X33	Y33	Z33	X34	Y34	Z34	X35	Y35	Z35	X36	Y36	Z36	X37	Y37	Z37	X38	Y38	Z38	X39	Y39	Z39	X40	Y40	Z40	X41	Y41	Z41	X42	Y42	Z42	X43	Y43	Z43	X44	Y44	Z44	X45	Y45	Z45	X46	Y46	Z46	X47	Y47	Z47	X48	Y48	Z48	X49	Y49	Z49	X50	Y50	Z50	X51	Y51	Z51	X52	Y52	Z52	X53	Y53	Z53	X54	Y54	Z54	X55	Y55	Z55	X56	Y56	Z56

488	2.44	-908.93	803.94	-224.81	-838.15	496.7	171.39	-801.22	1590.6	-28.828	-830.94	545.13	177.68	-828.74	1462.7	42.272	-869.93	471.62	48.988	-829.88	18.372	131.07	-900.17	1085.9	-231.36	-896.31	262.24	158.21	-886.48	24.174	92.761	-927.18	20.372	176.47	-936.71	183.8	84.038	-402.52	64.148	-119.66	-841.89	771.89	-217.96	-824.71	1207.5	-202.14	-920.32	945.89	-233.4	-1095.7	44.428	86.917	-746.69	1396.6	-131.83	-1009.4	70.488	62.064	-722.5	916.5	338.29	-728.04	1011	-109.67	-660.02	516.54	-106.04	-668.38	575.55	-117.24	-565.2	322.14	-108.54	-917.4	1024	3.1573	-573.12	25.8	-47.273	-502.65	89.72	-21.095	-337.59	113.04	-69.28	-922.41	1029.7	71.576	-1032.2	76.456	141.12	-526.11	72.916	-100.28	-724.91	1231.5	286.28	-644.46	686.09	-87.794	-626.15	1635.1	-1.27	-618.06	843.79	277.03	-837.17	1353.4	198.86	-799.03	1586.2	107.78	-697.8	664.79	-133.68	-652.97	488.32	23.634	-568.9	413.27	-34.51	-614.14	795.13	324.14	-728.77	752.49	-144.56	-527.45	232.89	-44.448	-755.78	636.72	158.95	-548.95	322.88	-38.673	-370.74	77.604	-45.774	-779.85	1068.7	342.24	-812.67	730.93	215.49	-818.93	636.43	198.67	-893.75	260.14	85.064	-625.07	1634.2	73.343	-744.05	976.88	204.51	-708.42	1410.1	191.11	-706.48	798.46	327.51	-903.11	1207.8	48.404	-848.25	347.91	86.245
489	2.445	-904.14	803.36	-225.65	-835.22	496.3	170.92	-795.98	1590.1	-29.925	-827.72	544.67	177.16	-823.51	1462.3	41.227	-866.97	471.25	48.545	-829.89	18.359	131.06	-895.09	1085.3	-232.14	-894.78	262.13	157.96	-886.49	24.188	92.745	-927.29	20.306	176.38	-935.77	183.92	83.886	-402.12	61.502	-119.97	-837.15	771.23	-218.82	-819.56	1206.9	-202.97	-915.38	945.33	-234.19	-1095.6	45.479	86.967	-741.44	1396	-132.81	-1009.2	71.098	62.058	-717.87	916.07	337.29	-722.85	1010.3	-110.5	-654.21	516.22	-106.08	-662	575.74	-117.15	-561.3	320.95	-108.24	-912.08	1023.6	2.4202	-572.82	25.283	-47.047	-501.47	87.788	-20.787	-336.32	109.52	-69.648	-917.19	1029.3	70.821	-1031.8	77.065	141.15	-525.25	71.55	-100.07	-719.88	1231.1	285.25	-638.23	686.41	-87.951	-620.96	1634.7	-2.2195	-613.44	843.18	276.21	-832	1353	197.89	-793.89	1585.8	106.68	-691.49	664.94	-133.88	-647.14	488.34	23.663	-564.35	412.07	-34.227	-609.67	794.54	323.35	-722.47	752.6	-145.09	-524.75	231.27	-44.083	-752.08	635.92	158.46	-545.29	321.48	-38.351	-369.61	74.337	-46.296	-775.02	1068.3	341.11	-808.64	730.48	214.76	-815.32	635.99	198.05	-892.3	260.07	84.651	-619.93	1633.8	72.394	-738.78	976.39	203.67	-703.2	1409.7	190.15	-699.96	797	325.43	-897.85	1207.4	47.586	-846.18	347.42	85.901
490	2.45	-899.25	802.79	-226.52	-832.16	495.92	170.42	-790.72	1589.6	-31.032	-824.38	544.23	176.59	-818.26	1461.8	40.17	-863.89	470.9	48.075	-829.92	18.343	131.04	-889.96	1084.7	-232.92	-893.17	262.08	157.71	-886.51	24.2	92.729	-927.42	20.24	176.26	-934.76	184.11	83.725	-401.69	58.862	-120.16	-832.3	770.59	-219.72	-814.37	1206.3	-203.82	-910.36	944.77	-234.98	-1095.4	46.682	87.014	-736.18	1395.4	-133.81	-1008.9	71.81	62.057	-713.28	915.67	336.27	-717.63	1009.7	-111.35	-648.55	515.91	-106.13	-655.85	575.86	-116.97	-557.41	319.83	-107.9	-906.76	1023.2	1.6685	-572.56	24.943	-46.841	-500.3	85.927	-20.438	-335.06	105.98	-69.819	-911.94	1028.9	70.049	-1031.4	77.764	141.18	-524.36	70.283	-99.837	-714.84	1230.7	284.2	-632.01	686.63	-88.125	-615.75	1634.3	-3.1821	-608.89	842.58	275.37	-826.8	1352.7	196.91	-788.74	1585.3	105.58	-685.31	665.03	-133.97	-641.53	488.33	23.66	-559.9	410.92	-33.9	-605.27	793.96	322.54	-716.22	752.69	-145.5	-522.09	229.72	-43.677	-748.28	635.16	157.91	-541.7	320.14	-37.986	-368.51	71.089	-46.689	-770.21	1067.9	339.96	-804.54	730.05	214	-811.62	635.56	197.38	-890.78	260.08	84.201	-614.78	1633.5	71.433	-733.47	975.92	202.77	-697.96	1409.3	189.17	-693.56	795.68	323.25	-892.58	1207	46.764	-844.01	346.95	85.534
491	2.455	-894.26	802.24	-227.4	-828.93	495.57	169.88	-785.46	1589.2	-32.147	-820.88	543.81	175.97	-812.99	1461.4	39.104	-860.67	470.57	47.582	-829.95	18.323	131.02	-884.76	1084.1	-233.71	-891.47	262.08	157.45	-886.52	24.211	92.715	-927.55	20.177	176.12	-933.68	184.38	83.557	-401.2	56.261	-120.22	-827.34	769.97	-220.65	-809.13	1205.7	-204.67	-905.26	944.22	-235.79	-1095.3	48.061	87.058	-730.9	1394.9	-134.82	-1008.6	72.639	62.063	-708.76	915.29	335.22	-712.38	1009.2	-112.22	-643.05	515.62	-106.18	-649.93	575.9	-116.74	-553.52	318.78	-107.54	-901.41	1022.8	0.89949	-572.28	24.788	-46.661	-499.12	84.164	-20.057	-333.75	102.46	-69.775	-906.67	1028.6	69.26	-1030.9	78.572	141.22	-523.37	69.131	-99.583	-709.78	1230.4	283.14	-625.84	686.74	-88.314	-610.54	1634	-4.1582	-604.4	841.99	274.51	-821.59	1352.4	195.92	-783.57	1584.9	104.46	-679.3	665.06	-133.96	-636.18	488.28	23.615	-555.53	409.84	-33.541	-600.96	793.4	321.72	-710.03	752.75	-145.8	-519.47	228.27	-43.24	-744.36	634.45	157.31	-538.16	318.89	-37.589	-367.38	67.901	-46.935	-765.43	1067.7	338.77	-800.36	729.64	213.19	-807.79	635.16	196.67	-889.16	260.16	83.725	-609.61	1633.2	70.459	-728.12	975.47	201.83	-692.69	1409	188.18	-687.27	794.51	321	-887.29	1206.6	45.937	-841.72	346.53	85.145
